<svg width="131" height="55" viewBox="0 0 131 55" fill="none" xmlns="http://www.w3.org/2000/svg">
<g clip-path="url(#clip0_332_226)">
<path d="M20.4606 0.5L22.1675 16.2136H16.5004L16.1499 5.00227L13.9615 16.2136H8.22812L5.9955 5.08825L5.66847 16.2136H0L1.70689 0.5H9.14711L11.0513 10.7355L12.7141 0.5H20.4606Z" fill="black"/>
<path d="M37.2119 16.2136C36.936 15.3947 36.5638 14.363 36.0956 13.1184H29.1149L28.0207 16.2136H22.5288L28.6554 0.5H36.7041L42.8749 16.2136H37.2119ZM34.8482 9.74201C34.2963 8.22715 33.7273 6.71183 33.1413 5.19606L32.617 3.79038C32.1064 5.10326 31.3549 7.08714 30.3623 9.74201H34.8482Z" fill="black"/>
<path d="M60.4061 8.91911C59.786 9.78527 58.7249 10.4131 57.2227 10.8025C57.3575 10.9768 57.4815 11.1591 57.5939 11.3484L61.1388 16.2191H55.1943C54.5504 15.0363 53.5385 13.3627 52.1586 11.1982H48.9422V16.2191H43.7773C43.8942 13.4205 43.9526 10.8015 43.9526 8.36231C43.9526 5.92306 43.8942 3.30412 43.7773 0.505493H48.9422V0.527334H53.4281C56.3718 0.527334 58.4287 0.996357 59.5989 1.93439C60.769 2.87242 61.3526 4.14207 61.3499 5.74336C61.3407 6.9971 61.0261 8.05569 60.4061 8.91911ZM48.9284 4.67751V7.14495H51.8827C52.8216 7.15906 53.7605 7.11942 54.6948 7.02622C55.3296 6.94707 55.7706 6.8206 56.0181 6.64682C56.1327 6.55898 56.2259 6.44674 56.2907 6.31841C56.3555 6.19009 56.3903 6.04898 56.3924 5.90556C56.3945 5.76214 56.364 5.6201 56.303 5.48996C56.242 5.35981 56.1522 5.24492 56.0402 5.1538C55.8065 4.98094 55.3691 4.8581 54.7279 4.78531C53.782 4.70047 52.8323 4.66449 51.8827 4.67751H48.9284Z" fill="black"/>
<path d="M74.6975 4.80711C72.9616 4.72158 71.6779 4.67109 70.8463 4.65562V12.058C71.6917 12.0434 72.9754 11.9929 74.6975 11.9065V16.2136H61.9834V11.9065C63.6613 11.992 64.9377 12.0425 65.8125 12.058V4.65562C64.9377 4.67018 63.6613 4.72067 61.9834 4.80711V0.5H74.6975V4.80711Z" fill="black"/>
<path d="M90.2568 16.2136C89.9808 15.3947 89.6087 14.363 89.1404 13.1184H82.1597L81.0655 16.2136H75.5723L81.7002 0.5H89.7531L95.9239 16.2136H90.2568ZM87.8972 9.74201C87.3452 8.22715 86.7763 6.71183 86.1903 5.19606L85.6646 3.79038C85.154 5.10326 84.4029 7.08714 83.4113 9.74201H87.8972Z" fill="black"/>
<path d="M52.1711 19.459C55.077 19.459 57.1008 19.9685 58.2425 20.9875C59.3841 22.0065 59.9539 23.4403 59.9521 25.2891C59.9521 26.5629 59.7254 27.6428 59.2718 28.529C58.8183 29.4152 58.0226 30.1085 56.8847 30.6089C55.7449 31.1066 54.1746 31.3558 52.1738 31.3568H47.6203V35.1698H42.2236C42.3405 32.3685 42.3989 29.7464 42.3989 27.3035C42.3989 24.8606 42.3405 22.2389 42.2236 19.4385H47.6134V19.459H52.1711ZM50.6408 27.1738C51.5522 27.1927 52.4639 27.1471 53.3688 27.0374C53.975 26.9464 54.3986 26.7767 54.6396 26.5283C54.8806 26.2799 55.0012 25.9187 55.0012 25.4447C55.0012 24.9689 54.888 24.6113 54.6617 24.372C54.4354 24.1327 54.0215 23.9703 53.4198 23.8848C52.4998 23.779 51.5738 23.7334 50.6477 23.7483H47.6244V27.1725L50.6408 27.1738Z" fill="black"/>
<path d="M72.523 35.1698C72.247 34.351 71.8744 33.3183 71.4053 32.0719H64.4163L63.3207 35.1698H57.8164L63.9513 19.4385H72.0152L78.1928 35.1698H72.523ZM70.1565 28.6914C69.6046 27.1738 69.0347 25.6567 68.4469 24.14L67.9211 22.7316C67.4106 24.0454 66.6586 26.032 65.6651 28.6914H70.1565Z" fill="black"/>
<path d="M92.4164 30.7276C92.8552 30.714 93.3657 30.6921 93.9508 30.6635C94.5358 30.6348 95.1844 30.613 95.9005 30.598C95.7988 31.2726 95.7367 31.9525 95.7142 32.6342C95.6922 33.3138 95.6811 34.159 95.6811 35.1699H78.8758V30.3373C79.6807 29.8897 80.5574 29.3374 81.5058 28.6805C82.4542 28.0236 83.6809 27.1593 85.1859 26.0875C86.5897 25.0767 87.6053 24.3543 88.2326 23.9203C87.0772 23.9349 84.7618 24.0145 81.2864 24.1592C80.0905 24.2165 79.287 24.2524 78.8758 24.267C78.8758 23.1988 78.8652 22.3036 78.844 21.5812C78.8229 20.8588 78.7769 20.1436 78.7061 19.4358H95.6866V24.2888C94.9121 24.7947 93.4807 25.7773 91.3925 27.2366C89.055 28.8843 87.2511 30.1049 85.9807 30.8982C86.8086 30.8864 88.9538 30.8295 92.4164 30.7276Z" fill="black"/>
<path d="M33.9888 34.946H22.3979V32.2165H31.229V22.3904H22.3579V19.6609H33.9888V34.946Z" fill="#BD81F8"/>
<path d="M11.7107 34.946H0.147461V19.6609H11.7107V22.3904H2.90719V32.2165H11.7107V34.946Z" fill="#BD81F8"/>
<path d="M18.3605 38.8082C18.2583 41.2466 18.2073 43.8582 18.2073 46.6432C18.2073 49.4427 18.2583 52.0617 18.3605 54.5H10.5256L5.22968 42.6814L5.62432 54.5H0C0.115908 51.6996 0.174325 49.0806 0.175245 46.6432C0.176165 44.2058 0.117748 41.5941 0 38.8082H8.05288L13.3709 50.9544L12.9983 38.8082H18.3605Z" fill="black"/>
<path d="M33.6811 54.5C33.4051 53.6811 33.033 52.6494 32.5648 51.4048H25.584L24.4898 54.5H18.9966L25.1245 38.7864H33.1774L39.3482 54.5H33.6811ZM31.3229 48.0284C30.7709 46.5135 30.202 44.9982 29.616 43.4824L29.0903 42.0754C28.5797 43.3892 27.8286 45.3735 26.837 48.0284H31.3229Z" fill="black"/>
<path d="M54.8992 38.7864L53.4545 42.0972C52.185 45.0269 51.1855 47.3715 50.4561 49.1311C49.7266 50.8907 49.0555 52.6803 48.4428 54.5H41.8995C41.3016 52.7104 40.6416 50.9389 39.9194 49.1857C39.1973 47.4325 38.2314 45.1852 37.0217 42.4439C36.8157 41.9826 36.283 40.7634 35.4238 38.7864H41.5077C41.9455 40.1857 42.5945 41.9821 43.4546 44.1757C44.2136 46.11 44.8262 47.7837 45.2926 49.1966C45.5989 48.2022 45.9669 47.1381 46.3965 46.0045C46.8261 44.8708 47.085 44.1816 47.1734 43.9369C48.0197 41.7306 48.6397 40.0137 49.0334 38.7864H54.8992Z" fill="black"/>
<path d="M66.3229 54.5C66.047 53.6811 65.6749 52.6494 65.2066 51.4048H58.23L57.1358 54.5H51.6426L57.7706 38.7864H65.8193L71.99 54.5H66.3229ZM63.9592 48.0284C63.4073 46.5135 62.8383 44.9982 62.2523 43.4824L61.7266 42.0754C61.2161 43.3892 60.465 45.3735 59.4733 48.0284H63.9592Z" fill="black"/>
<path d="M89.6551 47.2015C89.0341 48.0667 87.9726 48.6945 86.4703 49.0848C86.606 49.2589 86.7304 49.4412 86.8429 49.6307L90.3878 54.5015H84.435C83.7911 53.3187 82.7792 51.6446 81.3993 49.4792H78.1829V54.5015H73.0181C73.134 51.701 73.1924 49.0821 73.1933 46.6447C73.1942 44.2072 73.1358 41.5883 73.0181 38.7878H78.1829V38.8097H82.6688C85.6125 38.8097 87.6694 39.2782 88.8396 40.2154C90.0097 41.1525 90.5934 42.4226 90.5906 44.0257C90.5869 45.2804 90.2751 46.3389 89.6551 47.2015ZM78.1774 42.9708V45.4273H81.1358C82.0743 45.4418 83.0128 45.4017 83.9466 45.3072C84.5813 45.228 85.0229 45.102 85.2712 44.9292C85.3874 44.8414 85.4819 44.7288 85.5476 44.5997C85.6134 44.4706 85.6486 44.3284 85.6507 44.1839C85.6529 44.0393 85.6218 43.8962 85.5599 43.7653C85.498 43.6343 85.4068 43.519 85.2933 43.428C85.0606 43.256 84.6227 43.1336 83.9797 43.0608C83.034 42.9819 82.0847 42.9518 81.1358 42.9708H78.1774Z" fill="black"/>
<path d="M109.53 47.2015C108.91 48.0667 107.848 48.6945 106.346 49.0848C106.481 49.2588 106.605 49.4411 106.717 49.6307L110.264 54.5015H104.318C103.674 53.3187 102.662 51.6446 101.282 49.4792H98.0642V54.5015H92.8994C93.0162 51.701 93.0747 49.0821 93.0747 46.6447C93.0747 44.2072 93.0162 41.5883 92.8994 38.7878H98.0642V38.8097H102.55C105.494 38.8097 107.551 39.2782 108.722 40.2154C109.893 41.1525 110.477 42.4226 110.472 44.0257C110.464 45.2804 110.15 46.3389 109.53 47.2015ZM98.0518 42.9708V45.4273H101.006C101.945 45.4418 102.884 45.4017 103.818 45.3072C104.453 45.228 104.895 45.102 105.143 44.9292C105.259 44.8413 105.353 44.7286 105.419 44.5994C105.485 44.4703 105.52 44.3281 105.522 44.1835C105.524 44.039 105.493 43.8959 105.431 43.765C105.368 43.6341 105.277 43.5189 105.164 43.428C104.93 43.256 104.493 43.1336 103.851 43.0608C102.905 42.9819 101.955 42.9519 101.006 42.9708H98.0518Z" fill="black"/>
<path d="M113.865 52.3465C112.289 50.9108 111.501 48.8941 111.501 46.2966C111.501 43.7282 112.285 41.7224 113.854 40.2795C115.422 38.8365 117.884 38.115 121.239 38.115C124.609 38.115 127.079 38.8365 128.647 40.2795C130.216 41.7224 130.998 43.7282 130.993 46.2966C130.993 48.9087 130.211 50.9285 128.647 52.356C127.083 53.7836 124.61 54.4982 121.228 54.5C117.895 54.5 115.44 53.7822 113.865 52.3465ZM124.741 49.1639C125.456 48.5507 125.813 47.5954 125.813 46.298C125.813 45.0288 125.456 44.0834 124.741 43.462C124.026 42.8406 122.859 42.5304 121.239 42.5313C119.633 42.5313 118.474 42.8415 117.76 43.462C117.046 44.0825 116.689 45.0278 116.688 46.298C116.688 47.5826 117.045 48.5348 117.76 49.1544C118.475 49.774 119.634 50.0842 121.239 50.0851C122.859 50.0842 124.026 49.7771 124.739 49.1639H124.741Z" fill="black"/>
</g>
<defs>
<clipPath id="clip0_332_226">
<rect width="131" height="54" fill="white" transform="translate(0 0.5)"/>
</clipPath>
</defs>
</svg>
